<svg xmlns="http://www.w3.org/2000/svg" width="22.928" height="22.928" viewBox="0 0 22.928 22.928">
  <g id="vuesax_bold_heart" data-name="vuesax/bold/heart" transform="translate(-236 -188)">
    <g id="heart" transform="translate(236 188)">
      <path id="Vector" d="M13.795,0A5.3,5.3,0,0,0,9.553,2.13,5.3,5.3,0,0,0,0,5.34,10.2,10.2,0,0,0,.5,8.5c1.509,4.777,6.162,7.633,8.464,8.416a2.083,2.083,0,0,0,1.185,0c2.3-.783,6.955-3.64,8.464-8.416a10.2,10.2,0,0,0,.5-3.162A5.325,5.325,0,0,0,13.795,0Z" transform="translate(1.911 2.962)" fill="#f54458"/>
      <path id="Vector-2" data-name="Vector" d="M0,0H22.928V22.928H0Z" transform="translate(22.928 22.928) rotate(180)" fill="none" opacity="0"/>
    </g>
  </g>
</svg>
